<?xml version="1.0" standalone="no"?>
<!DOCTYPE svg PUBLIC "-//W3C//DTD SVG 20010904//EN"
 "http://www.w3.org/TR/2001/REC-SVG-20010904/DTD/svg10.dtd">
<svg version="1.0" xmlns="http://www.w3.org/2000/svg"
 width="700.000000pt" height="700.000000pt" viewBox="0 0 700.000000 700.000000"
 preserveAspectRatio="xMidYMid meet">
<metadata>
Created by potrace 1.14, written by Peter Selinger 2001-2017
</metadata>
<g transform="translate(0.000000,700.000000) scale(0.100000,-0.100000)"
fill="#000000" stroke="none">
<path d="M3445 6908 c-27 -11 -743 -260 -1590 -554 -847 -294 -1542 -538
-1546 -542 -5 -7 446 -4214 455 -4238 2 -6 602 -336 1333 -733 730 -398 1345
-734 1366 -747 l37 -24 38 24 c20 13 635 349 1365 747 731 397 1331 727 1333
733 5 15 454 4179 454 4215 0 22 -6 32 -22 37 -17 5 -3053 1060 -3158 1097 -8
3 -37 -4 -65 -15z m-380 -1303 c86 -18 176 -63 241 -119 l49 -43 140 -6 c314
-14 622 -121 923 -321 354 -234 564 -490 609 -742 25 -138 -68 -273 -220 -320
-227 -70 -682 19 -1262 247 l-157 61 -82 -26 c-526 -174 -779 -558 -727 -1106
27 -279 119 -482 305 -665 95 -95 177 -154 311 -226 l80 -43 -55 62 c-171 195
-240 321 -240 442 l0 50 133 -133 c72 -73 182 -170 242 -215 130 -98 347 -209
480 -247 193 -55 403 -69 603 -39 133 19 161 33 70 34 -186 1 -372 73 -499
194 l-54 51 45 3 c260 14 537 120 787 299 86 61 293 240 293 253 0 4 -37 -17
-82 -46 -90 -60 -202 -106 -292 -123 -69 -13 -246 -15 -246 -3 0 4 49 52 110
105 253 224 443 497 523 752 77 244 86 504 28 750 l-19 80 33 -40 c48 -57 120
-198 145 -285 33 -112 39 -332 12 -460 -24 -116 -85 -275 -151 -392 -27 -49
-46 -88 -41 -88 17 0 135 139 200 236 37 56 93 149 125 207 32 59 62 104 67
101 14 -9 9 -250 -8 -363 -28 -190 -102 -377 -212 -531 -101 -142 -299 -320
-457 -410 -32 -18 -54 -35 -47 -38 28 -9 186 43 297 97 66 32 178 98 249 145
71 48 131 85 133 83 5 -6 -102 -220 -148 -294 -260 -416 -619 -678 -1095 -797
-248 -62 -552 -79 -769 -42 -470 79 -879 296 -1229 651 -193 196 -355 452
-443 702 -21 62 -40 93 -89 148 -127 144 -174 238 -161 320 3 18 27 65 54 105
47 72 48 75 51 162 4 79 1 93 -21 137 -33 63 -56 153 -64 249 -8 109 8 137
172 297 156 152 155 149 155 342 0 158 11 218 51 273 40 56 111 87 239 106
189 28 268 72 455 254 117 114 148 140 190 153 91 29 171 33 270 12z"/>
<path d="M3923 4828 c-29 -14 -53 -66 -46 -101 3 -15 19 -39 36 -53 60 -51
147 -6 147 76 0 67 -73 109 -137 78z"/>
</g>
</svg>
