<?xml version="1.0" standalone="no"?>
<!DOCTYPE svg PUBLIC "-//W3C//DTD SVG 20010904//EN"
 "http://www.w3.org/TR/2001/REC-SVG-20010904/DTD/svg10.dtd">
<svg version="1.0" xmlns="http://www.w3.org/2000/svg"
 width="932.000000pt" height="932.000000pt" viewBox="0 0 932.000000 932.000000"
 preserveAspectRatio="xMidYMid meet">
<metadata>
Created by potrace 1.14, written by Peter Selinger 2001-2017
</metadata>
<g transform="translate(0.000000,932.000000) scale(0.100000,-0.100000)"
fill="#000000" stroke="none">
<path d="M1479 9316 c-2 -2 -17 -7 -34 -10 -100 -18 -114 -23 -221 -78 -81
-41 -95 -51 -175 -128 -60 -58 -149 -180 -149 -205 0 -7 -4 -16 -9 -19 -12 -8
-46 -115 -60 -186 -7 -36 -10 -699 -11 -1962 l0 -1908 160 0 160 0 0 1892 c0
2070 -3 1956 57 2064 61 109 206 209 315 218 3 1 9 4 13 8 4 4 12 5 18 2 21
-7 107 -10 107 -3 0 4 16 3 35 -1 19 -4 37 -4 40 0 2 4 23 4 45 0 22 -4 40 -4
40 0 0 4 16 4 35 0 19 -4 37 -5 39 -1 5 8 82 5 95 -4 5 -3 12 -1 16 5 4 6 12
7 24 1 9 -5 23 -6 31 -1 7 4 19 6 26 3 17 -6 284 -9 284 -3 0 7 69 4 76 -3 3
-3 16 -2 29 3 13 5 25 6 28 3 8 -8 117 -9 117 -2 0 4 16 3 35 -1 19 -4 37 -4
40 0 2 4 23 4 45 0 22 -4 40 -4 40 0 0 4 16 4 35 0 19 -4 37 -5 39 -1 5 8 82
5 95 -4 5 -3 12 -1 16 4 3 7 15 7 30 1 15 -6 27 -6 30 0 3 6 15 6 30 0 15 -6
27 -6 30 0 3 6 15 6 30 0 15 -6 27 -6 30 0 3 6 15 6 30 0 15 -6 27 -6 30 0 3
6 15 6 30 0 15 -6 27 -6 30 0 3 6 15 6 30 0 15 -6 27 -6 30 0 3 6 15 6 30 0
15 -6 27 -6 30 0 3 6 15 6 30 0 15 -6 27 -6 30 0 3 5 12 7 20 4 21 -8 115 -10
115 -3 0 4 16 3 35 -1 20 -4 38 -4 41 1 3 5 9 7 14 4 5 -3 41 -7 81 -10 197
-11 375 -184 393 -380 3 -27 5 -893 6 -1922 l0 -1873 160 0 160 0 -2 1938 -3
1937 -22 71 c-19 62 -77 190 -93 204 -3 3 -16 21 -30 40 -39 57 -91 109 -155
157 -67 51 -169 105 -179 96 -3 -4 -6 0 -6 7 0 7 -3 10 -6 7 -4 -3 -14 -2 -24
3 -9 5 -28 11 -41 14 -13 3 -46 9 -74 15 -47 10 -2336 16 -2346 7z"/>
<path d="M5608 9315 c-2 -2 -22 -7 -43 -11 -161 -25 -350 -169 -427 -324 -66
-133 -76 -177 -77 -340 -1 -47 -1 -114 -2 -150 -1 -36 -1 -72 0 -80 0 -8 0
-44 0 -80 -1 -36 -1 -72 0 -80 0 -8 0 -44 0 -80 -1 -36 -1 -72 0 -80 0 -8 0
-44 0 -80 -1 -36 -1 -72 0 -80 0 -8 0 -44 0 -80 -1 -36 -1 -72 0 -80 0 -8 0
-44 0 -80 -1 -36 -1 -72 0 -80 0 -8 0 -44 0 -80 -1 -36 -1 -72 0 -80 0 -8 0
-44 0 -80 -1 -36 -1 -72 0 -80 0 -8 0 -44 0 -80 -1 -36 -1 -72 0 -80 0 -8 0
-44 0 -80 -1 -36 -1 -72 0 -80 0 -8 0 -44 0 -80 -1 -36 -1 -72 0 -80 0 -8 0
-44 0 -80 -1 -36 -1 -72 0 -80 0 -8 0 -44 0 -80 -1 -36 -1 -72 0 -80 0 -8 0
-44 0 -80 -1 -36 -1 -72 0 -80 0 -8 0 -44 0 -80 -1 -36 -1 -72 0 -80 0 -8 0
-44 0 -80 -1 -36 -1 -72 0 -80 0 -8 0 -44 0 -80 -1 -36 -1 -72 0 -80 0 -8 0
-44 0 -80 -1 -36 -1 -72 0 -80 0 -8 0 -44 0 -80 -1 -76 -2 -62 4 -170 5 -85
31 -178 69 -255 70 -136 215 -260 363 -310 67 -23 78 -25 170 -31 44 -3 82 -7
85 -9 4 -2 23 0 43 5 20 4 39 4 42 0 3 -4 21 -4 40 0 19 4 37 4 40 0 3 -4 21
-4 40 0 19 4 37 4 40 0 3 -4 21 -4 40 0 19 4 37 4 40 0 3 -4 21 -4 40 0 19 4
37 4 40 0 3 -4 21 -4 40 0 19 4 37 4 40 0 3 -4 21 -4 40 0 20 4 38 4 41 -1 3
-5 10 -7 15 -3 9 5 142 8 164 4 6 -1 15 -1 20 0 6 1 30 1 55 1 25 -1 52 -1 60
-1 8 -1 34 1 58 2 23 2 42 -1 42 -5 0 -5 5 -5 10 -2 14 8 114 10 126 2 6 -3
16 -2 23 2 7 5 30 5 51 1 22 -4 42 -5 45 -2 7 8 112 5 125 -3 6 -3 10 -3 10 2
0 4 19 7 42 5 24 -1 50 -3 58 -2 88 2 121 1 130 -5 5 -3 10 -3 10 2 0 4 19 7
42 5 24 -1 50 -3 58 -2 88 2 121 1 130 -5 5 -3 10 -2 10 3 0 5 19 6 43 2 23
-3 57 -3 75 1 18 4 34 3 37 -1 3 -4 21 -4 40 0 19 4 37 4 40 0 3 -4 21 -4 40
0 19 4 37 4 40 0 3 -4 21 -4 40 0 19 4 37 4 40 0 3 -4 21 -4 40 0 19 4 37 4
40 0 3 -4 21 -4 40 0 19 4 37 4 40 0 3 -4 21 -4 40 0 19 4 37 4 40 -1 3 -4 11
-6 18 -4 7 3 44 7 82 9 115 6 178 46 221 141 l24 52 -2 1139 c-3 992 -5 1142
-18 1163 -39 63 -71 94 -118 117 -50 23 -59 24 -307 23 -11 0 -229 0 -485 0
-256 0 -469 0 -475 0 -5 0 -72 0 -148 1 -77 1 -141 -1 -143 -3 -4 -4 -5 -259
-2 -304 1 -13 14 -18 33 -13 20 5 105 1 115 -5 5 -3 10 -1 10 5 0 6 5 8 11 5
10 -7 70 -8 167 -3 28 2 52 1 52 -2 0 -3 17 -4 37 -3 21 1 49 2 63 3 28 1 156
2 180 1 75 -2 184 0 191 5 5 3 9 2 9 -3 0 -7 97 -7 170 0 14 1 37 -1 53 -5 16
-4 27 -3 27 3 0 6 5 7 11 4 6 -4 34 -7 62 -6 114 2 143 2 162 -2 20 -4 20 -12
20 -580 0 -318 2 -577 5 -577 3 0 5 -12 4 -27 -1 -16 -3 -28 -4 -28 -1 0 -2
-24 -3 -53 -1 -28 0 -52 3 -52 3 0 3 -36 0 -80 -3 -44 -3 -80 0 -80 3 0 5 -12
4 -27 -1 -16 -3 -28 -4 -28 -1 0 -2 -24 -3 -53 -1 -28 0 -52 3 -52 3 0 3 -82
0 -182 -3 -124 -9 -182 -16 -181 -10 2 -38 2 -148 4 -22 0 -43 2 -48 5 -4 3
-8 2 -8 -3 0 -4 -27 -8 -60 -8 -33 0 -60 2 -60 5 0 5 -270 3 -327 -3 -18 -2
-33 0 -33 3 0 3 -27 3 -60 0 -33 -3 -60 -3 -60 0 0 3 -25 5 -55 5 -30 0 -55
-3 -55 -6 0 -3 -22 -3 -50 1 -27 3 -54 4 -60 0 -5 -3 -31 -3 -57 0 -26 3 -92
3 -145 0 -54 -3 -98 -3 -98 0 0 3 -27 3 -60 0 -33 -3 -60 -3 -60 0 0 3 -25 5
-55 5 -30 0 -55 -3 -55 -6 0 -3 -22 -3 -50 1 -27 3 -54 4 -60 0 -6 -4 -32 -4
-58 -1 -26 3 -81 4 -122 1 -41 -3 -96 -2 -122 1 -26 3 -52 2 -58 -1 -6 -4 -31
-4 -55 0 -25 4 -45 4 -45 1 0 -3 -27 -6 -60 -6 -33 0 -60 2 -60 5 0 3 -87 5
-193 5 -183 1 -194 2 -242 25 -83 41 -157 130 -175 210 -3 14 -5 777 -5 1695
l0 1670 25 49 c53 104 151 173 257 181 32 2 60 5 63 6 17 4 58 3 77 -3 12 -4
25 -3 28 2 4 6 13 7 24 1 9 -5 23 -6 31 -1 7 4 19 6 26 3 17 -6 284 -9 284 -3
0 7 69 4 76 -3 3 -3 16 -2 29 3 13 5 25 6 28 3 8 -8 117 -9 117 -2 0 4 16 3
35 -1 19 -4 37 -4 40 0 2 4 23 4 45 0 22 -4 40 -4 40 0 0 4 16 4 35 0 19 -4
37 -5 39 -1 5 8 82 5 95 -4 5 -3 12 -1 16 4 3 7 15 7 30 1 15 -6 27 -6 30 0 3
6 15 6 30 0 15 -6 27 -6 30 0 3 6 15 6 30 0 15 -6 27 -6 30 0 3 6 15 6 30 0
15 -6 27 -6 30 0 3 6 15 6 30 0 15 -6 27 -6 30 0 3 6 15 6 30 0 15 -6 27 -6
30 0 3 6 15 6 30 0 15 -6 27 -6 30 0 3 6 15 6 30 0 15 -6 27 -6 30 0 3 5 12 7
20 4 21 -8 115 -10 115 -3 0 4 16 3 35 -1 19 -4 37 -4 40 0 2 4 23 4 45 0 22
-4 40 -4 40 0 0 4 16 4 35 0 19 -4 37 -5 39 -1 5 8 82 5 95 -4 5 -3 12 -1 16
5 4 6 12 7 24 1 9 -5 23 -6 31 -1 7 4 19 6 26 3 17 -6 284 -9 284 -3 0 7 69 4
76 -3 3 -3 16 -2 29 3 13 5 25 6 28 3 8 -8 117 -9 117 -2 0 4 16 3 35 -1 19
-4 37 -4 40 1 3 4 16 4 28 0 12 -5 32 -5 45 0 13 5 22 5 22 -2 0 -6 6 -6 18
-1 9 5 23 7 31 4 10 -3 12 1 8 17 -3 11 -2 21 2 21 6 0 6 38 -2 98 -2 18 -1
34 3 37 4 3 4 22 0 43 -3 21 -3 47 0 58 4 10 5 25 3 32 -4 10 -309 12 -1498
12 -820 0 -1494 -2 -1497 -5z"/>
<path d="M1700 8682 c0 -4 -19 -6 -42 -6 -85 3 -174 -53 -214 -133 -18 -37
-19 -98 -22 -1880 l-2 -1843 160 0 160 0 2 1768 3 1767 60 2 c74 3 167 4 262
3 40 -1 77 1 82 4 5 4 12 3 14 -2 3 -4 37 -5 76 -2 39 3 71 3 71 0 0 -6 109
-4 115 2 2 2 32 1 67 -2 35 -3 89 -3 121 0 31 3 57 3 57 0 0 -3 27 -3 60 0 33
3 60 3 60 0 0 -3 51 -4 112 -2 134 3 113 3 267 3 67 -1 127 2 132 5 5 3 9 1 9
-3 0 -5 27 -6 60 -3 33 3 60 3 60 0 0 -3 19 -5 42 -5 38 0 43 -3 42 -22 0 -13
3 -23 7 -23 5 0 5 -11 0 -23 -5 -13 -5 -30 -1 -37 5 -8 5 -21 0 -30 -5 -9 -5
-22 0 -30 5 -8 5 -21 0 -30 -5 -9 -5 -22 0 -30 5 -8 5 -21 0 -30 -5 -9 -5 -22
0 -30 5 -8 5 -21 0 -30 -5 -9 -5 -22 0 -30 5 -8 5 -21 0 -30 -5 -9 -5 -22 0
-30 5 -8 5 -21 0 -30 -5 -9 -5 -22 0 -30 5 -8 5 -21 0 -30 -5 -9 -5 -22 0 -30
5 -8 5 -21 0 -31 -5 -9 -7 -19 -3 -22 7 -8 8 -85 1 -92 -3 -3 -2 -22 2 -41 4
-18 4 -34 0 -34 -4 0 -4 -18 0 -40 4 -22 4 -43 0 -45 -4 -3 -4 -21 0 -40 4
-19 5 -35 1 -35 -3 0 -6 -25 -6 -55 0 -30 3 -55 7 -55 4 0 3 -13 -2 -30 -5
-19 -5 -30 1 -30 6 0 7 -5 4 -11 -4 -6 -7 -43 -7 -84 0 -41 3 -78 7 -84 3 -6
2 -11 -4 -11 -6 0 -6 -11 -1 -30 5 -17 5 -30 0 -30 -5 0 -5 -13 0 -30 5 -17 5
-30 0 -30 -5 0 -5 -13 0 -30 5 -17 5 -32 0 -35 -5 -3 -5 -16 0 -30 6 -15 6
-27 0 -30 -5 -3 -6 -15 -1 -26 4 -12 4 -43 1 -70 -4 -27 -3 -49 1 -49 4 0 4
-13 -1 -30 -5 -19 -5 -30 1 -30 6 0 7 -5 4 -11 -9 -14 -9 -154 0 -168 3 -6 2
-11 -4 -11 -6 0 -6 -11 -1 -30 5 -17 5 -30 0 -30 -5 0 -5 -13 0 -30 5 -17 5
-30 0 -30 -5 0 -5 -13 0 -30 5 -17 5 -32 0 -35 -5 -3 -5 -16 0 -30 6 -15 6
-27 -1 -30 -5 -4 -7 -11 -3 -16 8 -13 10 -97 2 -104 -3 -3 -2 -22 2 -41 4 -18
4 -34 0 -34 -4 0 -4 -18 0 -40 4 -22 4 -43 0 -45 -4 -3 -4 -21 0 -40 4 -19 5
-35 1 -35 -3 0 -5 -24 -3 -52 1 -29 3 -59 2 -65 0 -7 0 -20 0 -28 0 -8 0 -22
0 -30 0 -8 0 -22 0 -30 0 -8 0 -22 0 -30 0 -8 0 -22 0 -30 0 -8 0 -22 0 -30 0
-8 0 -22 0 -30 0 -8 0 -22 0 -30 0 -8 0 -22 0 -30 0 -8 0 -22 0 -30 0 -8 0
-22 0 -30 0 -8 0 -22 0 -30 0 -8 0 -22 0 -30 0 -8 0 -22 0 -30 0 -8 0 -22 0
-30 0 -8 0 -22 0 -30 0 -8 0 -21 0 -27 0 -7 0 -32 2 -55 1 -24 -1 -45 -4 -48
-3 -3 -2 -22 2 -41 4 -18 4 -34 0 -34 -4 0 -4 -18 0 -40 4 -22 4 -43 0 -45 -4
-3 -4 -21 0 -40 4 -19 5 -35 1 -35 -4 0 -5 -16 -3 -35 l4 -35 159 0 c99 0 159
4 160 10 1 22 0 140 -1 148 -1 4 -1 27 0 51 5 128 4 181 -3 181 -5 0 -6 4 -3
9 5 7 6 93 5 231 0 8 0 62 0 120 0 58 0 112 0 120 0 8 0 62 0 120 0 58 0 112
0 120 0 8 0 62 0 120 0 58 0 112 0 120 0 8 0 62 0 120 0 58 0 112 0 120 0 8 0
60 0 115 1 55 1 138 2 185 0 47 1 142 2 213 1 70 -1 127 -5 127 -3 0 -4 8 -2
18 7 29 9 222 2 222 -3 0 -4 8 -2 18 7 29 9 222 2 222 -3 0 -4 8 -2 18 8 33 9
222 1 222 -5 0 -6 4 -3 9 5 7 6 93 5 231 0 8 0 62 0 120 0 58 0 114 0 125 0
11 0 56 0 100 0 147 -13 195 -70 253 -42 43 -91 64 -156 67 -29 2 -56 6 -61 8
-4 3 -14 2 -22 -3 -7 -4 -23 -4 -36 0 -12 5 -25 6 -28 3 -8 -8 -76 -9 -76 -1
0 4 -13 3 -30 -2 -16 -5 -30 -6 -30 -2 0 8 -68 7 -76 -1 -3 -3 -16 -2 -28 3
-13 4 -29 4 -36 0 -8 -5 -21 -5 -30 0 -9 5 -22 5 -30 0 -8 -5 -21 -5 -30 0 -9
5 -22 5 -30 0 -8 -5 -21 -5 -30 0 -9 5 -22 5 -30 0 -8 -5 -21 -5 -30 0 -9 5
-22 5 -30 0 -8 -5 -21 -5 -30 0 -9 5 -22 5 -30 0 -8 -5 -21 -5 -30 0 -9 5 -22
5 -30 0 -8 -5 -21 -5 -30 0 -9 5 -22 5 -30 0 -8 -5 -21 -5 -30 0 -9 5 -22 5
-30 0 -8 -5 -21 -5 -30 0 -9 5 -22 5 -30 0 -8 -5 -18 -6 -23 -3 -6 3 -35 5
-66 4 -31 -1 -62 -2 -68 -2 -7 1 -24 1 -38 1 -14 0 -32 0 -40 0 -8 0 -26 0
-40 0 -14 0 -32 0 -40 0 -8 0 -26 0 -40 0 -14 0 -32 0 -40 0 -8 0 -26 0 -40 0
-14 0 -32 0 -40 0 -8 0 -26 0 -40 0 -14 0 -32 0 -40 0 -8 0 -27 0 -42 -1 -16
0 -37 1 -48 1 -11 1 -26 1 -32 1 -92 -3 -123 -2 -131 3 -6 3 -13 2 -17 -3 -3
-7 -15 -7 -30 -1 -14 5 -27 5 -30 0 -3 -5 -18 -5 -35 0 -17 5 -30 6 -30 2z"/>
<path d="M5967 8684 c-3 -3 -33 -6 -68 -8 -35 -2 -80 -10 -100 -19 -70 -31
-126 -109 -134 -187 -4 -29 -6 -269 -4 -320 1 -8 1 -44 0 -80 0 -36 0 -72 0
-80 1 -8 1 -116 0 -240 0 -124 0 -232 1 -240 0 -8 0 -44 -1 -80 0 -36 0 -72 0
-80 1 -8 1 -116 0 -240 0 -124 0 -232 1 -240 0 -8 0 -44 -1 -80 0 -36 0 -72 0
-80 1 -8 1 -116 0 -240 0 -124 0 -232 1 -240 0 -8 -1 -44 -2 -80 -1 -36 0
-177 2 -315 l3 -250 29 -45 c44 -68 100 -106 169 -115 46 -7 1906 -6 1938 0
130 25 200 123 199 275 -1 25 -1 54 0 65 1 123 -1 229 -6 236 -3 5 0 9 6 9 6
0 9 4 6 8 -3 5 -5 42 -5 83 -1 41 -1 106 -1 144 -1 39 -1 77 -1 85 3 96 1 171
-3 179 -4 5 -2 12 3 15 4 3 5 24 1 46 -4 22 -4 40 1 40 5 0 6 6 4 13 -2 6 -6
37 -9 67 -11 130 -93 216 -214 224 -23 2 -45 5 -47 8 -2 2 -30 1 -60 -2 -31
-3 -58 -3 -61 2 -3 4 -16 3 -29 -2 -15 -6 -27 -6 -30 0 -3 6 -15 6 -30 0 -15
-6 -27 -6 -30 0 -3 6 -15 6 -29 0 -13 -5 -26 -7 -29 -4 -2 3 -31 5 -63 4 -33
0 -70 0 -84 1 -14 0 -31 0 -37 0 -66 -3 -125 -2 -130 2 -3 4 -13 3 -22 -2 -9
-5 -25 -5 -36 -1 -11 4 -30 4 -42 -1 -12 -5 -25 -4 -28 1 -3 5 -18 5 -35 0
-17 -5 -30 -5 -30 0 0 4 -12 5 -26 1 -25 -6 -26 -7 -25 -114 1 -223 -2 -204
24 -203 12 1 29 -1 38 -5 8 -4 21 -4 29 1 7 4 24 4 36 0 14 -6 26 -5 29 0 3 6
15 6 30 0 15 -6 27 -6 30 1 4 5 11 7 16 3 12 -7 128 -9 135 -1 3 3 18 1 34 -3
16 -4 31 -6 34 -3 7 7 95 8 102 0 3 -3 17 -2 30 3 13 5 26 6 29 0 3 -5 18 -5
35 0 17 5 32 5 35 0 3 -6 16 -5 29 0 13 5 26 7 28 4 3 -2 20 -5 39 -7 l34 -3
0 -57 c0 -31 3 -57 7 -57 4 0 3 -13 -2 -30 -5 -17 -5 -30 0 -30 5 0 5 -13 0
-30 -5 -17 -5 -30 0 -30 5 0 5 -13 0 -30 -5 -17 -5 -30 0 -30 5 0 5 -13 0 -30
-5 -17 -5 -30 0 -30 5 0 5 -13 0 -30 -5 -17 -5 -30 0 -30 5 0 5 -13 0 -30 -5
-17 -5 -30 0 -30 5 0 5 -13 0 -30 -5 -17 -5 -30 0 -30 5 0 5 -13 0 -30 -5 -16
-6 -30 -2 -30 8 0 7 -68 -1 -76 -3 -3 -2 -17 3 -30 6 -14 6 -24 0 -24 -5 0 -5
-12 0 -30 5 -17 5 -32 0 -35 -6 -3 -5 -16 0 -29 5 -13 6 -27 3 -30 -4 -3 -388
-6 -855 -6 l-849 0 1 88 c1 106 2 541 2 562 -1 8 -1 188 0 400 0 212 0 392 -1
400 0 8 0 116 0 240 1 124 1 232 1 240 -3 104 0 685 3 690 3 4 19 5 37 1 18
-4 54 -4 80 -1 27 4 48 4 48 1 0 -7 109 -6 115 1 2 2 32 1 67 -2 35 -3 89 -3
121 0 31 3 57 3 57 0 0 -3 27 -3 60 0 33 3 60 3 60 0 0 -3 51 -4 112 -2 134 3
113 3 267 3 67 -1 127 2 132 5 5 3 9 1 9 -3 0 -5 27 -6 60 -3 33 3 60 3 60 0
0 -3 51 -4 112 -2 62 1 120 3 128 3 39 0 226 1 235 0 123 -2 156 -1 164 3 5 4
12 3 14 -2 3 -4 37 -5 76 -2 39 3 71 3 71 0 0 -4 107 -4 120 1 3 1 9 1 14 0 4
-1 58 -1 120 -1 148 0 143 0 205 0 30 0 59 4 64 9 10 10 11 126 2 141 -3 4 1
11 7 13 10 4 10 6 1 6 -9 1 -10 8 -4 24 4 12 5 33 1 47 -4 14 -3 32 1 41 5 11
4 21 -4 27 -17 13 -57 22 -57 12 0 -5 -13 -5 -30 0 -17 5 -30 5 -30 0 0 -5
-13 -5 -30 0 -19 5 -30 5 -30 -1 0 -6 -5 -7 -11 -4 -5 4 -38 6 -72 6 -34 -1
-70 -1 -79 -1 -10 0 -29 0 -43 0 -14 0 -32 0 -40 0 -8 0 -26 0 -40 0 -14 0
-32 0 -40 0 -8 0 -26 0 -40 0 -14 0 -32 0 -40 0 -8 0 -26 0 -40 0 -14 0 -32 0
-40 0 -8 0 -26 0 -40 0 -14 0 -32 0 -40 0 -8 0 -26 0 -40 0 -14 0 -32 0 -40 0
-8 0 -26 0 -40 0 -14 0 -41 0 -60 -1 -19 0 -68 1 -109 2 -41 0 -79 -2 -85 -6
-6 -3 -11 -2 -11 4 0 6 -11 6 -30 1 -17 -5 -30 -5 -30 0 0 5 -13 5 -30 0 -17
-5 -30 -5 -30 0 0 5 -13 5 -30 0 -17 -5 -30 -5 -30 0 0 5 -13 5 -30 0 -17 -5
-30 -5 -30 0 0 5 -13 5 -30 0 -16 -5 -30 -6 -30 -2 0 8 -68 7 -76 -1 -3 -3
-16 -2 -28 3 -13 4 -29 4 -36 0 -8 -5 -21 -5 -30 0 -9 5 -22 5 -30 0 -8 -5
-21 -5 -30 0 -9 5 -22 5 -30 0 -8 -5 -21 -5 -30 0 -9 5 -22 5 -30 0 -8 -5 -21
-5 -30 0 -9 5 -22 5 -30 0 -8 -5 -21 -5 -30 0 -9 5 -22 5 -30 0 -8 -5 -21 -5
-30 0 -9 5 -22 5 -30 0 -8 -5 -21 -5 -30 0 -9 5 -22 5 -30 0 -8 -5 -21 -5 -30
0 -9 5 -22 5 -30 0 -8 -5 -21 -5 -30 0 -9 5 -22 5 -30 0 -8 -5 -18 -6 -23 -3
-12 7 -116 7 -124 0 -3 -3 -15 -2 -27 2 -11 5 -30 5 -41 1 -11 -4 -29 -4 -40
0 -11 4 -29 4 -40 0 -11 -4 -29 -4 -40 0 -11 4 -29 4 -40 0 -11 -4 -29 -4 -40
0 -11 4 -29 4 -40 0 -11 -4 -30 -4 -41 1 -12 4 -24 6 -27 3z"/>
<path d="M750 4520 c0 -4 -11 -5 -25 -2 l-25 4 0 -161 0 -161 63 0 c579 -2
1076 -8 1092 -12 193 -56 332 -210 359 -398 4 -27 7 -337 4 -410 0 -8 0 -62 1
-120 0 -58 0 -112 0 -120 -1 -19 0 -379 1 -440 2 -103 21 -159 71 -208 66 -64
78 -67 355 -69 301 -3 317 0 399 86 37 39 54 113 56 244 1 65 0 120 -2 122 -2
2 -2 38 1 80 3 42 3 78 0 80 -3 2 -3 110 0 240 3 130 3 238 0 240 -3 2 -3 38
0 80 3 42 2 79 -2 81 -4 3 -5 10 -3 17 2 7 6 39 9 72 15 152 93 278 223 362
29 18 58 33 66 33 7 0 17 3 21 8 4 4 12 8 17 8 5 1 10 2 12 4 13 11 111 14
542 17 275 2 518 4 540 4 22 0 45 0 50 -1 6 -1 23 -2 39 -1 20 1 27 5 23 16
-4 8 -2 17 2 20 5 3 5 21 1 40 -4 19 -5 35 -1 35 3 0 5 28 3 62 -1 35 -3 69
-2 76 2 61 -2 70 -27 75 -12 2 -23 1 -23 -3 0 -4 -16 -4 -34 0 -19 4 -38 5
-41 2 -7 -8 -91 -6 -104 2 -5 4 -12 2 -16 -3 -3 -7 -15 -7 -30 -1 -14 5 -27 5
-30 0 -3 -5 -18 -5 -35 0 -17 5 -30 5 -30 0 0 -5 -13 -5 -30 0 -17 5 -30 5
-30 0 0 -5 -13 -5 -30 0 -19 5 -30 5 -30 -1 0 -6 -5 -7 -11 -4 -14 9 -154 9
-168 0 -6 -3 -11 -2 -11 4 0 6 -11 6 -30 1 -17 -5 -30 -6 -30 -2 0 4 -25 7
-55 7 -30 0 -55 -3 -55 -6 0 -4 -16 -3 -35 1 -19 4 -37 4 -40 0 -3 -4 -21 -4
-40 0 -19 4 -37 4 -40 -1 -3 -4 -16 -4 -29 1 -13 5 -26 7 -29 4 -2 -3 -35 -7
-73 -9 -38 -3 -85 -9 -104 -15 -19 -6 -45 -13 -57 -16 -40 -8 -153 -63 -214
-104 -65 -45 -135 -111 -185 -175 -39 -50 -104 -168 -104 -189 0 -9 -4 -16 -8
-16 -5 0 -9 -6 -10 -12 0 -7 -8 -42 -17 -78 -23 -95 -23 -91 -24 -652 l-1
-518 -120 0 -120 0 -1 523 c0 287 -2 531 -4 542 -2 11 -6 36 -9 55 -8 57 -35
148 -56 186 -11 19 -20 39 -20 45 0 5 -5 15 -10 22 -6 7 -24 33 -41 59 -92
143 -312 296 -465 324 -15 3 -30 7 -34 9 -3 2 -44 7 -91 10 -46 4 -87 9 -91
12 -5 2 -8 0 -8 -5 0 -6 -14 -7 -34 -2 -19 4 -38 5 -41 2 -3 -3 -24 -5 -48 -4
-23 2 -48 2 -54 2 -7 0 -20 0 -28 0 -8 0 -22 0 -30 0 -8 0 -22 0 -30 0 -8 0
-22 0 -30 0 -8 0 -22 0 -30 0 -8 0 -22 0 -30 0 -8 0 -22 0 -30 0 -8 0 -22 0
-30 0 -8 0 -22 0 -30 0 -8 0 -22 0 -30 0 -8 0 -22 0 -30 0 -8 0 -22 0 -30 0
-8 0 -22 0 -30 0 -8 0 -22 0 -30 0 -8 0 -22 0 -30 0 -8 0 -22 0 -30 0 -8 0
-21 0 -27 0 -7 -1 -37 1 -66 2 -28 2 -52 0 -52 -3 0 -4 -16 -3 -35 1 -19 4
-37 4 -40 0 -2 -4 -23 -4 -45 0 -22 4 -40 4 -40 0z"/>
<path d="M5810 4527 c-3 -3 -34 -8 -70 -12 -115 -13 -181 -32 -285 -86 -243
-124 -399 -352 -430 -629 -6 -55 -9 -136 -5 -155 1 -5 2 -14 1 -20 -2 -13 -2
-451 0 -462 1 -4 1 -12 0 -18 -4 -30 -1 -457 4 -465 3 -5 1 -11 -4 -15 -6 -3
-8 -11 -6 -18 2 -7 6 -50 9 -97 3 -47 10 -100 15 -119 6 -18 10 -36 9 -40 -1
-3 4 -19 10 -34 7 -16 12 -34 13 -40 0 -17 79 -159 109 -197 60 -76 210 -210
236 -210 4 0 23 -10 43 -22 19 -12 40 -23 46 -24 5 -1 24 -8 40 -15 17 -7 37
-13 45 -15 8 -1 35 -7 60 -14 25 -7 77 -14 115 -16 39 -1 72 -3 75 -4 3 -1 32
-1 65 0 33 0 71 0 85 0 14 -1 31 -1 38 -1 21 1 86 2 122 2 34 -1 53 -1 85 -1
8 0 22 0 30 0 8 0 22 0 30 0 8 0 22 0 30 0 56 1 124 0 145 -1 14 0 32 0 40 0
66 3 120 2 129 -3 5 -4 12 -2 15 3 4 6 18 6 36 1 17 -5 30 -5 30 0 0 5 13 5
30 0 19 -5 30 -5 30 1 0 6 5 7 10 4 6 -4 39 -6 73 -6 34 1 73 1 87 0 14 0 31
0 38 0 21 1 86 2 122 2 34 -1 53 -1 85 -1 8 0 22 0 30 0 8 0 22 0 30 0 8 0 22
0 30 0 56 1 124 0 145 -1 14 0 30 -1 35 0 108 5 135 5 135 1 0 -3 12 -6 28 -5
l27 0 3 -429 c2 -425 2 -428 -18 -423 -11 3 -23 1 -26 -4 -3 -5 -9 -7 -14 -4
-9 5 -124 9 -145 5 -5 -1 -14 -2 -19 -1 -13 3 -129 3 -141 1 -5 -1 -14 -2 -19
-1 -13 3 -129 3 -141 1 -5 -1 -14 -2 -18 -1 -10 2 -1409 2 -1422 0 -5 -1 -14
-1 -19 0 -13 3 -129 3 -141 1 -5 -1 -14 -2 -19 -1 -13 3 -129 3 -141 1 -5 -1
-14 -2 -19 -1 -24 5 -137 4 -141 -1 -3 -3 -21 -2 -39 2 -19 4 -40 4 -46 0 -7
-4 -25 -4 -41 0 -49 14 -53 -4 -50 -238 l1 -82 1388 2 1387 3 50 33 c53 35 84
74 103 131 9 24 12 191 11 587 0 517 -1 557 -18 595 -24 53 -70 101 -118 124
-49 24 -214 31 -541 22 -50 -1 -92 0 -92 3 0 3 -40 4 -90 3 -49 -2 -131 -4
-180 -5 -50 -2 -90 0 -90 3 0 3 -12 4 -27 2 -46 -6 -293 -8 -293 -3 0 3 -63 3
-140 0 -77 -3 -140 -3 -140 0 0 3 -44 4 -97 3 -377 -8 -447 -2 -538 45 -16 9
-33 16 -37 17 -15 0 -116 92 -145 130 -16 22 -43 72 -59 110 l-29 70 -2 645
c-2 680 -1 692 44 788 53 111 173 216 286 247 4 2 8 3 10 5 14 11 230 14 1437
16 767 2 1419 3 1448 4 l52 0 0 159 c0 163 -5 183 -40 161 -7 -5 -24 -4 -36 0
-13 5 -26 5 -28 1 -3 -5 -24 -5 -46 -1 -22 4 -40 4 -40 0 0 -4 -16 -4 -34 0
-19 4 -38 5 -41 2 -7 -8 -91 -6 -104 2 -5 4 -12 2 -16 -3 -3 -7 -15 -7 -30 -1
-14 5 -27 5 -30 0 -3 -5 -18 -5 -35 0 -17 5 -30 5 -30 0 0 -5 -13 -5 -30 0
-17 5 -30 5 -30 0 0 -5 -13 -5 -30 0 -19 5 -30 5 -30 -1 0 -6 -5 -7 -11 -4
-14 9 -154 9 -168 0 -6 -3 -11 -2 -11 4 0 6 -11 6 -30 1 -16 -5 -30 -6 -30 -2
0 4 -25 7 -55 7 -30 0 -55 -3 -55 -6 0 -4 -16 -3 -35 1 -19 4 -37 4 -40 0 -2
-4 -23 -4 -45 0 -22 4 -40 4 -40 0 0 -4 -16 -4 -34 0 -19 4 -38 5 -41 2 -3 -3
-24 -5 -48 -4 -23 2 -48 2 -54 2 -7 0 -20 0 -28 0 -8 0 -22 0 -30 0 -8 0 -22
0 -30 0 -8 0 -22 0 -30 0 -8 0 -22 0 -30 0 -8 0 -22 0 -30 0 -8 0 -22 0 -30 0
-8 0 -22 0 -30 0 -8 0 -22 0 -30 0 -8 0 -22 0 -30 0 -8 0 -22 0 -30 0 -8 0
-22 0 -30 0 -8 0 -22 0 -30 0 -8 0 -22 0 -30 0 -8 0 -22 0 -30 0 -8 0 -22 0
-30 0 -8 0 -21 0 -27 0 -7 -1 -37 1 -66 2 -28 2 -52 0 -52 -3 0 -4 -16 -3 -35
1 -19 4 -37 4 -40 0 -2 -4 -23 -4 -45 0 -22 4 -40 4 -40 0 0 -4 -16 -4 -34 0
-19 4 -38 5 -41 2 -7 -8 -91 -6 -104 2 -5 4 -12 2 -16 -3 -3 -7 -15 -7 -30 -1
-14 5 -27 5 -30 0 -3 -5 -18 -5 -35 0 -17 5 -30 5 -30 0 0 -5 -13 -5 -30 0
-17 5 -30 5 -30 0 0 -5 -13 -5 -30 0 -19 5 -30 5 -30 -1 0 -6 -5 -7 -11 -4 -6
4 -43 7 -84 7 -41 0 -78 -3 -84 -7 -6 -3 -11 -2 -11 4 0 6 -11 6 -29 1 -19 -5
-31 -5 -33 1 -2 6 -6 8 -8 6z"/>
<path d="M704 3877 c-2 -7 -3 -80 -2 -162 l3 -150 33 0 c17 0 32 -3 32 -7 0
-3 14 -3 30 2 17 5 30 5 30 0 0 -5 13 -5 30 0 17 5 30 5 30 0 0 -5 13 -5 30 0
17 5 30 5 30 0 0 -5 13 -5 30 0 17 5 30 5 30 0 0 -5 13 -5 30 0 17 5 30 5 30
0 0 -5 13 -5 30 0 17 5 30 5 30 0 0 -5 13 -5 30 0 17 5 30 6 30 2 0 -8 139 -7
147 1 3 3 15 2 27 -2 11 -5 30 -5 41 -1 11 4 32 4 46 0 15 -4 32 -4 39 0 7 5
23 5 34 0 12 -4 30 -4 41 0 11 4 28 5 37 2 17 -4 18 -71 18 -1313 l0 -1309
-460 0 -460 0 0 -160 0 -160 518 0 c408 1 525 4 555 14 67 24 106 58 137 120
l30 59 -1 1436 c0 1325 -1 1439 -17 1477 -36 86 -107 140 -198 149 -74 8 -494
11 -494 4 0 -4 -16 -3 -35 1 -19 4 -37 4 -40 0 -2 -4 -23 -4 -45 0 -22 4 -40
4 -40 0 0 -4 -16 -4 -35 0 -19 4 -37 5 -39 1 -5 -8 -82 -5 -95 4 -5 3 -12 1
-16 -4 -3 -7 -15 -7 -30 -1 -15 6 -27 6 -30 0 -3 -6 -15 -6 -30 0 -15 6 -27 6
-30 0 -3 -6 -15 -6 -31 0 -18 7 -26 6 -30 -3z"/>
<path d="M3650 3887 c-3 -3 -23 -8 -44 -11 -94 -15 -185 -100 -200 -187 -7
-44 -8 -2834 0 -2874 12 -68 48 -118 114 -161 l45 -29 538 -3 539 -3 -3 45
c-2 25 0 48 3 51 3 3 2 22 -2 41 -4 18 -5 34 -1 34 5 0 4 87 -1 137 -2 13 -57
23 -64 11 -3 -5 -9 -6 -14 -3 -7 4 -714 8 -742 4 -56 -8 -114 7 -100 24 5 7 6
21 2 32 -4 11 -4 34 1 52 4 18 3 35 -2 38 -4 3 -5 16 0 28 5 12 5 31 1 42 -4
11 -4 34 1 52 4 18 3 35 -2 38 -4 3 -5 16 0 28 5 12 5 31 1 42 -4 11 -4 34 1
52 4 18 3 35 -2 38 -4 3 -5 16 0 28 5 12 5 31 1 42 -4 11 -4 34 1 52 4 18 3
35 -2 38 -4 3 -5 16 -1 28 4 12 7 36 5 52 -1 17 -2 53 -2 80 0 28 0 60 0 73
-1 50 -1 83 0 95 1 6 0 47 -1 90 -2 43 0 80 3 83 3 3 2 17 -3 30 -5 13 -6 26
-1 28 4 3 5 25 1 48 -3 24 -3 59 1 78 4 19 4 41 0 50 -4 8 -6 26 -4 40 5 38 5
40 3 123 -2 43 0 80 3 83 3 3 2 17 -3 30 -5 13 -6 26 -1 28 4 3 5 25 1 48 -3
24 -3 59 1 78 4 19 4 41 0 50 -4 8 -6 26 -4 40 2 14 3 48 3 75 1 70 1 156 1
183 -1 50 -1 83 0 95 1 6 0 47 -1 90 -2 43 0 80 3 83 3 3 2 17 -3 30 -5 13 -6
26 -1 28 4 3 5 26 1 51 -4 24 -4 47 -1 50 3 4 6 16 6 28 0 18 6 22 35 24 74 6
138 5 147 0 5 -3 15 -2 23 3 8 5 21 5 30 0 9 -5 22 -5 30 0 8 5 21 5 30 0 9
-5 22 -5 30 0 8 5 21 5 30 0 9 -5 22 -5 30 0 8 5 21 5 30 0 9 -5 22 -5 30 0 8
5 21 5 30 0 9 -5 22 -5 30 0 8 5 21 5 30 0 9 -5 22 -5 30 0 8 5 21 5 30 0 9
-5 22 -5 30 0 8 5 21 5 30 0 9 -5 22 -5 30 0 8 5 21 5 30 0 9 -5 22 -5 30 0 8
5 21 5 30 0 9 -5 22 -5 29 -1 7 5 30 5 51 1 21 -4 43 -4 49 0 11 6 21 120 11
120 -3 0 -5 18 -5 40 0 22 2 40 5 40 5 0 4 68 0 80 -1 3 -3 12 -4 20 0 8 -11
15 -23 15 -12 0 -25 4 -28 7 -4 4 -18 3 -31 -2 -14 -6 -24 -6 -24 0 0 5 -12 5
-28 1 -15 -5 -37 -5 -49 0 -13 5 -25 4 -28 -1 -3 -6 -15 -6 -30 0 -15 6 -27 6
-30 0 -3 -6 -15 -6 -30 0 -15 6 -27 6 -30 0 -3 -6 -15 -6 -30 0 -15 6 -27 6
-30 0 -3 -5 -12 -7 -20 -4 -21 8 -115 10 -115 3 0 -4 -16 -3 -35 1 -19 4 -37
4 -40 0 -2 -4 -23 -4 -45 0 -22 4 -40 4 -40 0 0 -4 -16 -4 -34 0 -19 4 -37 5
-40 2 -8 -7 -85 -7 -92 1 -3 3 -17 2 -30 -3 -13 -5 -26 -6 -29 0 -3 5 -18 5
-35 0 -18 -5 -30 -5 -32 1 -2 6 -6 8 -8 6z"/>
<path d="M5827 3884 c-3 -3 -20 -8 -38 -11 -36 -5 -104 -45 -131 -77 -26 -31
-47 -79 -54 -122 -3 -22 -7 -41 -9 -44 -2 -3 0 -12 4 -19 5 -7 5 -29 1 -49 -3
-20 -3 -48 0 -62 4 -14 3 -37 -1 -52 -4 -16 -4 -28 1 -28 5 0 5 -13 0 -30 -5
-17 -5 -30 0 -30 5 0 5 -13 0 -30 -5 -16 -6 -30 -2 -30 8 0 7 -88 -1 -96 -2
-3 -1 -21 3 -40 4 -18 5 -34 1 -34 -7 0 -5 -119 3 -127 3 -3 1 -13 -4 -22 -5
-10 -5 -23 0 -31 4 -7 4 -24 0 -36 -6 -14 -5 -26 0 -29 6 -3 6 -15 0 -30 -5
-13 -6 -26 -2 -29 5 -3 5 -30 2 -60 -3 -31 -4 -56 -1 -56 4 0 6 -26 7 -58 0
-96 56 -177 146 -214 40 -15 124 -17 1073 -17 596 -1 1044 -5 1063 -10 18 -5
32 -7 32 -4 0 3 7 -1 17 -8 9 -8 18 -12 20 -10 7 6 67 -22 111 -51 62 -42 116
-103 151 -168 60 -112 59 -106 60 -801 0 -412 -3 -647 -10 -670 -5 -19 -12
-42 -14 -52 -8 -38 -69 -137 -108 -177 -53 -54 -128 -102 -192 -123 -48 -16
-158 -32 -200 -29 -11 1 -31 1 -45 1 -14 0 -32 0 -40 0 -8 1 -37 1 -65 1 -27
0 -57 0 -65 0 -8 0 -31 0 -50 -1 -19 -1 -44 -1 -55 0 -11 0 -42 1 -70 1 -27 0
-57 0 -65 0 -8 0 -31 0 -50 -1 -19 -1 -44 -1 -55 0 -11 0 -42 1 -70 1 -27 0
-57 0 -65 0 -8 0 -31 0 -50 -1 -19 -1 -44 -1 -55 0 -11 0 -42 1 -70 1 -27 0
-57 0 -65 0 -8 0 -31 0 -50 -1 -19 -1 -44 -1 -55 0 -11 0 -42 1 -70 1 -27 0
-57 0 -65 0 -8 0 -31 0 -50 -1 -19 -1 -44 -1 -55 0 -11 0 -31 0 -45 0 -14 0
-32 0 -40 0 -8 1 -37 1 -65 1 -27 0 -57 0 -65 0 -8 0 -31 0 -50 -1 -19 -1 -44
-1 -55 0 -11 0 -42 1 -70 1 -27 0 -57 0 -65 0 -8 0 -31 0 -50 -1 -19 -1 -44
-1 -55 0 -11 0 -42 1 -70 1 -27 0 -57 0 -65 0 -8 0 -31 0 -50 -1 -19 -1 -44
-1 -55 0 -11 0 -42 1 -70 1 -27 0 -57 0 -65 0 -8 0 -31 0 -50 -1 -19 -1 -44
-1 -55 0 -11 0 -42 1 -70 1 -27 0 -57 0 -65 0 -8 0 -31 0 -50 -1 -19 -1 -44
-1 -55 0 -11 0 -31 0 -45 0 -29 -1 -33 -1 -83 3 -28 3 -38 -1 -43 -14 -3 -10
-3 -22 1 -27 3 -5 2 -12 -2 -14 -5 -3 -7 -64 -5 -136 l3 -131 1457 2 1457 3
70 22 c100 31 144 48 157 61 7 7 17 12 23 12 18 0 135 89 188 144 109 112 189
265 212 406 17 100 18 112 13 163 -3 21 -1 40 2 42 4 3 4 22 0 43 -4 21 -4 47
0 58 4 10 4 28 0 39 -4 11 -4 34 1 52 4 18 3 35 -2 38 -4 3 -5 16 -1 28 5 12
7 31 6 42 -9 69 -10 97 -4 100 4 3 4 22 0 43 -3 21 -4 47 0 57 4 11 5 33 3 50
-9 63 -9 86 -1 91 5 3 6 9 3 14 -3 4 -5 25 -5 47 0 70 0 123 0 136 -1 18 -1
143 0 216 1 63 -10 180 -19 203 -5 13 -9 26 -10 31 -7 51 -96 247 -112 247 -5
0 -9 4 -9 10 0 25 -122 147 -198 199 -70 47 -157 89 -225 108 -29 7 -61 17
-72 21 -11 3 -473 8 -1027 9 l-1008 4 0 72 c-1 39 -1 81 -1 92 0 11 0 40 0 65
0 25 0 65 0 90 1 257 0 313 -5 321 -3 5 -2 9 3 9 4 0 7 38 6 85 -2 47 1 85 5
86 42 4 82 3 82 -3 0 -4 14 -3 30 2 17 5 30 5 30 0 0 -5 13 -5 30 0 17 5 30 5
30 0 0 -5 13 -5 30 0 17 5 30 5 30 0 0 -5 13 -5 30 0 17 5 30 5 30 0 0 -5 13
-5 30 0 17 5 30 6 30 2 0 -4 33 -6 72 -4 40 2 82 2 93 2 11 -1 27 -1 35 -1 8
1 29 1 45 0 17 0 37 0 45 1 8 0 24 0 35 0 11 -1 27 -1 35 -1 8 1 29 1 45 0 17
0 37 0 45 1 8 0 24 0 35 0 11 -1 27 -1 35 -1 8 1 29 1 45 0 17 0 37 0 45 1 8
0 24 0 35 0 11 -1 26 -1 33 -1 91 3 122 2 130 -3 6 -3 13 -2 17 3 3 7 15 7 30
1 14 -5 27 -5 30 0 3 5 18 5 35 0 17 -5 30 -5 30 0 0 5 13 5 30 0 17 -5 30 -5
30 0 0 5 13 5 30 0 17 -5 30 -5 30 0 0 5 13 5 30 0 17 -5 30 -5 30 0 0 5 13 5
30 0 17 -5 30 -5 30 0 0 5 13 5 30 0 17 -5 30 -5 30 0 0 5 13 5 30 0 17 -5 30
-5 30 0 0 5 13 5 30 0 17 -5 30 -5 30 0 0 5 13 5 30 0 17 -5 30 -5 30 0 0 5
13 5 30 0 17 -5 30 -5 30 0 0 5 13 5 30 0 17 -5 30 -5 30 0 0 5 13 5 30 0 17
-5 30 -5 30 0 0 5 13 5 30 0 17 -5 30 -5 30 0 0 5 13 5 30 0 17 -5 30 -5 30 0
0 5 13 5 30 0 17 -5 30 -5 30 0 0 5 13 5 30 0 17 -5 30 -5 30 0 0 5 13 5 30 0
19 -5 30 -5 30 1 0 6 5 7 10 4 13 -8 134 -10 146 -3 5 3 18 2 29 -2 11 -4 29
-4 40 0 11 4 29 4 40 0 11 -4 30 -4 42 1 12 5 25 5 27 0 3 -4 19 -6 36 -3 l30
4 0 160 c0 137 -2 159 -15 155 -8 -4 -17 -2 -20 3 -3 5 -15 6 -29 0 -12 -4
-29 -4 -36 0 -8 5 -21 5 -30 0 -9 -5 -22 -5 -30 0 -8 5 -21 5 -31 0 -9 -5 -19
-7 -21 -4 -8 7 -138 10 -138 3 0 -4 -16 -3 -35 1 -19 4 -37 4 -40 0 -2 -4 -23
-4 -45 0 -22 4 -40 4 -40 0 0 -4 -16 -4 -35 0 -19 4 -37 5 -39 1 -5 -8 -82 -5
-95 4 -5 3 -12 1 -16 -4 -3 -7 -15 -7 -30 -1 -15 6 -27 6 -30 0 -3 -6 -15 -6
-30 0 -15 6 -27 6 -30 0 -3 -6 -15 -6 -30 0 -15 6 -27 6 -30 0 -3 -6 -15 -6
-30 0 -15 6 -27 6 -30 0 -3 -6 -15 -6 -30 0 -15 6 -27 6 -30 0 -3 -6 -15 -6
-30 0 -15 6 -27 6 -30 0 -3 -6 -15 -6 -30 0 -15 6 -27 6 -30 0 -3 -6 -15 -6
-30 0 -15 6 -27 6 -30 0 -3 -5 -12 -7 -20 -4 -21 8 -115 10 -115 3 0 -4 -16
-3 -35 1 -19 4 -37 4 -40 0 -2 -4 -23 -4 -45 0 -22 4 -40 4 -40 0 0 -4 -16 -4
-34 0 -19 4 -37 5 -40 2 -8 -7 -85 -7 -92 1 -3 3 -17 2 -30 -3 -14 -6 -26 -6
-29 0 -3 6 -15 6 -30 0 -15 -6 -27 -6 -30 0 -3 6 -15 6 -29 0 -13 -5 -27 -6
-30 -3 -8 8 -456 9 -456 2 0 -4 -16 -3 -35 1 -19 4 -37 4 -40 0 -2 -4 -23 -4
-45 0 -22 4 -40 4 -40 0 0 -4 -16 -4 -35 0 -19 4 -37 5 -39 1 -5 -8 -82 -5
-95 4 -5 3 -12 1 -16 -4 -3 -7 -15 -7 -30 -1 -15 6 -27 6 -30 0 -3 -5 -15 -6
-29 0 -12 4 -29 4 -36 0 -8 -5 -21 -5 -31 0 -9 5 -19 7 -22 4z"/>
<path d="M2557 2124 c-3 -3 -38 -6 -78 -6 -113 -1 -183 -40 -229 -130 -17 -31
-32 -96 -32 -133 0 -5 0 -165 0 -355 1 -190 1 -352 0 -360 0 -28 1 -234 3
-275 6 -173 -41 -303 -147 -408 -27 -26 -52 -47 -55 -47 -4 0 -14 -6 -21 -12
-46 -45 -195 -83 -298 -78 -8 0 -31 0 -50 -1 -19 -1 -44 -1 -55 0 -11 0 -42 1
-70 1 -27 0 -57 0 -65 0 -8 0 -31 0 -50 -1 -19 -1 -44 -1 -55 0 -11 0 -31 0
-45 0 -14 0 -32 0 -40 0 -8 1 -37 1 -65 1 -27 0 -57 0 -65 0 -8 0 -31 0 -50
-1 -19 -1 -44 -1 -55 0 -11 0 -42 1 -70 1 -27 0 -57 0 -65 0 -8 0 -31 0 -50
-1 -35 -2 -41 -1 -90 2 -64 4 -60 14 -60 -161 l0 -160 558 1 c306 0 582 4 612
9 191 32 374 141 503 301 20 25 37 51 37 57 0 6 3 12 8 14 21 9 94 185 110
268 3 14 7 277 9 585 3 387 7 562 15 566 6 4 24 3 39 -1 18 -5 29 -5 29 1 0 6
5 7 11 3 6 -3 42 -6 80 -6 l69 0 1 -521 c0 -561 1 -579 25 -677 16 -68 100
-250 114 -250 5 0 11 -8 15 -19 5 -17 110 -130 151 -161 89 -69 230 -134 339
-157 17 -3 296 -8 622 -10 l591 -4 4 51 c1 27 0 50 -4 50 -4 0 -3 14 2 30 5
17 5 30 0 30 -4 0 -4 16 0 35 4 19 4 35 0 35 -5 0 -5 12 -1 28 16 58 3 67 -94
63 -16 -1 -37 -1 -45 -1 -8 0 -31 0 -50 -1 -19 -1 -44 -1 -55 0 -11 0 -42 1
-70 1 -27 0 -57 0 -65 0 -8 0 -31 0 -50 -1 -19 -1 -44 -1 -55 0 -11 0 -42 1
-70 1 -27 0 -57 0 -65 0 -8 0 -31 0 -50 -1 -19 -1 -44 -1 -55 0 -11 0 -31 0
-45 0 -14 0 -32 0 -40 0 -14 1 -87 1 -140 0 -130 -2 -219 10 -285 36 -38 15
-72 31 -75 35 -3 4 -13 11 -23 17 -30 16 -127 115 -127 130 0 7 -4 13 -9 13
-5 0 -12 13 -16 30 -4 16 -10 30 -14 30 -4 0 -8 6 -9 13 -1 6 -8 36 -16 65
-12 42 -15 112 -15 319 0 146 -2 267 -3 268 -2 2 -1 110 2 240 3 130 3 238 2
240 -2 2 -4 41 -4 86 0 117 -34 193 -109 241 -25 16 -104 42 -124 40 -49 -4
-286 -2 -293 2 -5 3 -12 3 -15 0z"/>
</g>
</svg>
