<?xml version="1.0" standalone="no"?>
<!DOCTYPE svg PUBLIC "-//W3C//DTD SVG 20010904//EN"
 "http://www.w3.org/TR/2001/REC-SVG-20010904/DTD/svg10.dtd">
<svg version="1.0" xmlns="http://www.w3.org/2000/svg"
 width="700.000000pt" height="700.000000pt" viewBox="0 0 700.000000 700.000000"
 preserveAspectRatio="xMidYMid meet">
<metadata>
Created by potrace 1.14, written by Peter Selinger 2001-2017
</metadata>
<g transform="translate(0.000000,700.000000) scale(0.100000,-0.100000)"
fill="#000000" stroke="none">
<path d="M2190 5695 l-1295 -463 3 -39 c2 -21 91 -796 198 -1722 134 -1164
198 -1687 206 -1693 7 -4 505 -280 1106 -613 l1092 -605 33 16 c77 40 2163
1197 2171 1204 11 11 407 3443 398 3452 -11 10 -2591 928 -2605 927 -7 -1
-595 -210 -1307 -464z m2120 -1976 c443 -996 807 -1815 808 -1820 2 -5 -129
-9 -300 -9 l-303 0 -164 410 -163 410 -692 -2 -691 -3 -164 -407 -163 -408
-303 0 -303 0 189 423 c104 232 469 1051 811 1819 343 769 625 1398 628 1398
3 0 367 -815 810 -1811z"/>
<path d="M3262 3783 c-128 -307 -232 -561 -232 -565 0 -5 212 -8 470 -8 259 0
470 3 470 8 0 15 -463 1122 -470 1122 -4 0 -111 -251 -238 -557z"/>
</g>
</svg>
