<?xml version="1.0" standalone="no"?>
<!DOCTYPE svg PUBLIC "-//W3C//DTD SVG 20010904//EN"
 "http://www.w3.org/TR/2001/REC-SVG-20010904/DTD/svg10.dtd">
<svg version="1.0" xmlns="http://www.w3.org/2000/svg"
 width="500.000000pt" height="500.000000pt" viewBox="0 0 500.000000 500.000000"
 preserveAspectRatio="xMidYMid meet">
<metadata>
Created by potrace 1.14, written by Peter Selinger 2001-2017
</metadata>
<g transform="translate(0.000000,500.000000) scale(0.100000,-0.100000)"
fill="#000000" stroke="none">
<path d="M2338 4834 c-2 -1 -26 -5 -53 -8 -78 -9 -232 -55 -315 -94 -41 -19
-77 -36 -80 -36 -7 -1 -164 -99 -170 -106 -3 -3 -35 -29 -72 -58 -59 -46 -172
-163 -226 -232 -130 -168 -240 -402 -312 -663 -28 -102 -30 -112 -44 -202 -4
-22 -9 -49 -11 -60 -19 -91 -28 -488 -13 -610 13 -104 20 -146 39 -232 11 -48
21 -97 23 -108 9 -43 15 -65 20 -73 3 -5 7 -19 10 -33 6 -30 46 -151 81 -244
33 -88 145 -322 185 -386 16 -27 26 -49 21 -49 -8 0 -33 -57 -37 -85 -1 -5 -3
-12 -4 -15 -2 -3 -4 -32 -5 -65 -4 -133 72 -258 196 -320 27 -14 49 -23 49
-21 0 2 20 -2 44 -9 24 -8 46 -12 48 -9 3 2 28 6 58 8 62 6 143 43 191 88 34
33 94 118 83 118 -4 0 -1 6 5 13 6 8 13 31 16 53 4 21 8 49 10 61 11 66 -43
201 -104 261 -35 34 -71 63 -71 57 0 -3 -15 4 -34 15 -39 21 -101 33 -163 31
-36 -2 -43 2 -56 26 -114 221 -188 392 -212 493 -3 8 -11 40 -20 70 -8 30 -23
91 -31 135 -9 44 -18 91 -21 105 -31 160 -35 462 -8 700 3 28 31 161 50 240
14 56 65 191 106 280 98 206 240 386 376 474 82 52 193 109 193 99 0 -5 4 -3
8 3 8 12 116 46 222 70 77 17 247 23 310 11 49 -9 143 -38 155 -47 6 -4 27
-13 48 -19 20 -7 37 -17 37 -22 0 -5 6 -9 13 -9 7 0 23 -9 35 -20 12 -11 25
-20 29 -20 23 0 253 -250 253 -275 0 -4 8 -19 19 -33 41 -59 145 -277 156
-326 1 -6 5 -18 8 -26 15 -34 56 -219 63 -275 l6 -61 146 -44 c81 -25 152 -46
159 -48 14 -4 10 81 -7 173 -5 28 -12 67 -14 87 -15 100 -50 227 -103 368
-129 342 -368 627 -654 779 -77 41 -215 91 -309 111 -47 11 -314 22 -322 14z"/>
<path d="M2052 3371 c-98 -33 -170 -100 -214 -198 -33 -73 -31 -199 4 -274 71
-154 220 -234 383 -206 91 16 198 92 241 172 13 25 26 35 44 36 107 5 218 4
233 -3 11 -6 17 -5 17 2 0 6 5 8 11 4 6 -3 32 -8 58 -10 44 -4 64 -6 164 -20
23 -3 96 -19 162 -35 66 -17 127 -32 135 -34 45 -10 220 -79 313 -123 59 -28
110 -51 114 -51 3 1 9 -3 12 -8 3 -4 22 -16 41 -27 71 -38 287 -186 340 -233
125 -110 320 -330 320 -361 0 -6 3 -12 8 -14 12 -5 62 -87 62 -102 0 -8 4 -16
9 -18 22 -8 124 -263 136 -341 3 -18 9 -56 14 -85 22 -139 -8 -334 -70 -459
-119 -239 -300 -404 -532 -483 -46 -15 -106 -31 -133 -35 -27 -4 -58 -9 -69
-12 -26 -5 -250 -4 -295 2 -37 4 -116 19 -190 34 -50 11 -138 39 -216 70 l-51
20 -25 -22 c-96 -82 -120 -101 -164 -134 -27 -21 -55 -44 -62 -51 -7 -6 -19
-12 -25 -12 -7 0 -4 -5 5 -11 10 -5 19 -9 20 -9 2 1 26 -9 53 -23 72 -35 245
-93 338 -112 10 -2 26 -6 35 -9 9 -3 35 -8 57 -11 22 -4 56 -9 75 -12 19 -3
121 -6 225 -6 212 -1 322 15 485 73 47 17 90 32 95 33 47 13 241 125 305 176
75 60 90 74 151 136 146 150 238 329 274 535 21 120 8 395 -26 530 -22 89 -89
273 -103 282 -6 4 -8 8 -3 8 4 0 -4 18 -17 39 -14 21 -23 41 -20 43 2 3 -2 11
-11 18 -8 7 -15 16 -15 21 0 19 -136 209 -209 293 -44 51 -215 219 -257 253
-175 144 -302 227 -482 317 -237 119 -514 208 -749 241 -21 3 -47 7 -58 10
-71 14 -217 25 -382 28 l-141 2 -35 45 c-90 118 -248 167 -385 121z"/>
<path d="M750 2629 c0 -5 -4 -7 -10 -4 -5 3 -10 2 -10 -2 0 -5 -26 -28 -57
-53 -158 -122 -338 -325 -425 -478 -48 -84 -97 -182 -92 -182 4 0 2 -6 -3 -12
-27 -36 -78 -217 -97 -343 -16 -112 -14 -327 3 -415 7 -30 14 -67 16 -82 14
-75 90 -279 108 -286 4 -2 7 -9 7 -16 0 -26 105 -164 180 -237 43 -41 109 -95
146 -119 38 -25 72 -48 75 -53 3 -5 9 -9 12 -8 4 0 39 -15 79 -33 74 -33 107
-48 121 -51 4 -2 8 -3 10 -5 1 -1 9 -3 17 -5 8 -3 56 -15 106 -28 83 -22 137
-32 234 -43 55 -6 249 -6 315 1 86 8 263 42 369 71 50 14 98 27 106 29 8 1 65
22 125 45 61 23 115 42 120 43 6 1 12 4 15 7 3 3 30 16 60 30 97 44 250 130
334 188 133 91 140 96 156 112 8 8 35 31 60 51 109 88 283 274 382 410 65 88
172 259 212 340 27 54 31 57 84 72 175 49 284 230 248 411 -18 95 -100 197
-194 243 -49 23 -70 27 -147 28 -77 0 -98 -4 -147 -27 -60 -28 -138 -100 -165
-152 -50 -97 -52 -219 -4 -319 18 -37 36 -67 41 -67 5 0 11 -9 15 -20 4 -13
-8 -44 -36 -92 -42 -72 -137 -218 -148 -228 -3 -3 -33 -38 -65 -78 -70 -86
-232 -243 -319 -307 -34 -25 -71 -53 -81 -62 -58 -47 -423 -263 -445 -263 -4
0 -27 -10 -52 -22 -24 -12 -48 -23 -54 -24 -5 -1 -36 -12 -67 -23 -31 -12 -65
-24 -75 -26 -10 -3 -43 -12 -73 -20 -30 -9 -67 -18 -82 -20 -15 -2 -35 -6 -45
-9 -70 -20 -373 -29 -488 -14 -381 49 -645 261 -763 613 -37 111 -43 152 -44
285 -1 308 183 646 501 918 l33 29 -22 79 c-12 43 -23 84 -25 89 -1 6 -5 24
-9 40 -5 17 -12 47 -17 68 -9 33 -29 52 -29 26z"/>
</g>
</svg>
