<?xml version="1.0" standalone="no"?>
<!DOCTYPE svg PUBLIC "-//W3C//DTD SVG 20010904//EN"
 "http://www.w3.org/TR/2001/REC-SVG-20010904/DTD/svg10.dtd">
<svg version="1.0" xmlns="http://www.w3.org/2000/svg"
 width="784.000000pt" height="784.000000pt" viewBox="0 0 784.000000 784.000000"
 preserveAspectRatio="xMidYMid meet">
<metadata>
Created by potrace 1.14, written by Peter Selinger 2001-2017
</metadata>
<g transform="translate(0.000000,784.000000) scale(0.100000,-0.100000)"
fill="#000000" stroke="none">
<path d="M765 7324 c27 -66 37 -109 42 -186 3 -47 9 -91 12 -95 3 -5 271 -115
594 -244 l588 -234 22 -40 c93 -174 -105 -436 -426 -565 l-75 -30 -361 236
c-199 130 -364 234 -367 231 -5 -4 202 -663 333 -1060 26 -80 43 -147 39 -160
-11 -43 -217 -220 -546 -467 -132 -100 -245 -191 -249 -203 -5 -12 -15 -58
-24 -102 -9 -44 -82 -413 -162 -820 -80 -407 -152 -772 -160 -812 -8 -40 -15
-75 -15 -78 0 -7 684 335 691 346 4 8 684 345 884 439 33 16 186 89 339 163
l279 135 224 -149 224 -150 231 73 c127 40 233 78 234 83 2 6 -85 73 -192 150
-107 77 -204 147 -215 155 -18 14 -24 46 -49 299 -16 156 -27 287 -25 291 6
10 342 43 566 56 l115 6 309 -201 c169 -111 313 -200 320 -197 6 2 122 81 258
175 l246 171 316 0 315 0 0 -306 0 -306 -28 -26 c-224 -216 -280 -272 -273
-276 5 -3 96 -37 204 -76 l195 -70 218 149 218 149 145 -72 c80 -39 428 -223
774 -409 581 -312 653 -348 938 -467 169 -72 313 -130 319 -130 6 0 9 8 6 18
-3 9 -84 415 -181 902 -97 486 -181 891 -188 899 -7 8 -167 142 -357 299 -190
157 -351 291 -359 298 -12 11 -9 38 17 186 17 95 66 363 107 596 42 233 75
427 73 432 -2 5 -130 -86 -286 -202 l-283 -211 -72 28 c-239 93 -388 199 -440
314 -32 70 -29 192 9 295 l29 78 530 175 c292 96 533 177 536 181 3 4 14 48
24 97 11 51 32 117 51 152 l32 61 -37 -13 c-20 -7 -346 -124 -724 -259 l-688
-246 -1682 0 -1682 0 -715 274 c-393 151 -724 278 -734 282 -16 6 -18 4 -11
-12z"/>
<path d="M3700 2841 c-184 -6 -186 -6 -253 -39 -76 -38 -111 -77 -126 -142
-12 -51 -13 -341 -2 -475 6 -64 25 -149 69 -295 33 -113 81 -277 107 -365 25
-87 48 -161 50 -163 5 -6 688 60 710 68 15 6 28 31 48 96 15 49 61 197 103
329 82 256 96 327 114 544 18 213 -6 369 -62 405 -50 32 -400 49 -758 37z"/>
</g>
</svg>
